<svg xmlns="http://www.w3.org/2000/svg" version="1.1" xmlns:xlink="http://www.w3.org/1999/xlink" xmlns:svgjs="http://svgjs.dev/svgjs" width="1440" height="560" preserveAspectRatio="none" viewBox="0 0 1440 560"><g mask="url(&quot;#SvgjsMask1014&quot;)" fill="none"><path d="M-71.89 394.2L-71.89 394.2" stroke="#132e65" stroke-width="1.5"></path><path d="M-71.89 394.2L-65.84 494.64" stroke="#132e65" stroke-width="1.5"></path><path d="M-71.89 394.2L50.15 403.23" stroke="#132e65" stroke-width="1.5"></path><path d="M-71.89 394.2L66.72 530.46" stroke="#132e65" stroke-width="1.5"></path><path d="M-65.84 494.64L-65.84 494.64" stroke="#132e65" stroke-width="1.5"></path><path d="M-65.84 494.64L66.72 530.46" stroke="#132e65" stroke-width="1.5"></path><path d="M-65.84 494.64L50.15 403.23" stroke="#132e65" stroke-width="1.5"></path><path d="M-65.84 494.64L-80.22 692.84" stroke="#132e65" stroke-width="1.5"></path><path d="M-65.84 494.64L211.22 548.88" stroke="#132e65" stroke-width="1.5"></path><path d="M-80.22 692.84L-80.22 692.84" stroke="#132e65" stroke-width="1.5"></path><path d="M-80.22 692.84L66.72 530.46" stroke="#132e65" stroke-width="1.5"></path><path d="M50.15 403.23L50.15 403.23" stroke="#132e65" stroke-width="1.5"></path><path d="M50.15 403.23L66.72 530.46" stroke="#132e65" stroke-width="1.5"></path><path d="M50.15 403.23L251.84 361.74" stroke="#132e65" stroke-width="1.5"></path><path d="M50.15 403.23L211.22 548.88" stroke="#132e65" stroke-width="1.5"></path><path d="M50.15 403.23L188.21 649.26" stroke="#132e65" stroke-width="1.5"></path><path d="M66.72 530.46L66.72 530.46" stroke="#132e65" stroke-width="1.5"></path><path d="M251.84 361.74L251.84 361.74" stroke="#132e65" stroke-width="1.5"></path><path d="M251.84 361.74L359.96 410.3" stroke="#132e65" stroke-width="1.5"></path><path d="M211.22 548.88L211.22 548.88" stroke="#132e65" stroke-width="1.5"></path><path d="M211.22 548.88L188.21 649.26" stroke="#132e65" stroke-width="1.5"></path><path d="M211.22 548.88L353.59 542.12" stroke="#132e65" stroke-width="1.5"></path><path d="M211.22 548.88L66.72 530.46" stroke="#132e65" stroke-width="1.5"></path><path d="M188.21 649.26L188.21 649.26" stroke="#132e65" stroke-width="1.5"></path><path d="M188.21 649.26L66.72 530.46" stroke="#132e65" stroke-width="1.5"></path><path d="M188.21 649.26L370.24 646.53" stroke="#132e65" stroke-width="1.5"></path><path d="M188.21 649.26L353.59 542.12" stroke="#132e65" stroke-width="1.5"></path><path d="M188.21 649.26L-80.22 692.84" stroke="#132e65" stroke-width="1.5"></path><path d="M359.96 410.3L359.96 410.3" stroke="#132e65" stroke-width="1.5"></path><path d="M359.96 410.3L353.59 542.12" stroke="#132e65" stroke-width="1.5"></path><path d="M359.96 410.3L510.56 339.71" stroke="#132e65" stroke-width="1.5"></path><path d="M359.96 410.3L211.22 548.88" stroke="#132e65" stroke-width="1.5"></path><path d="M353.59 542.12L353.59 542.12" stroke="#132e65" stroke-width="1.5"></path><path d="M353.59 542.12L370.24 646.53" stroke="#132e65" stroke-width="1.5"></path><path d="M370.24 646.53L370.24 646.53" stroke="#132e65" stroke-width="1.5"></path><path d="M510.56 339.71L510.56 339.71" stroke="#132e65" stroke-width="1.5"></path><path d="M510.56 339.71L705.39 223.31" stroke="#132e65" stroke-width="1.5"></path><path d="M553.84 691.83L553.84 691.83" stroke="#132e65" stroke-width="1.5"></path><path d="M553.84 691.83L672.39 712.03" stroke="#132e65" stroke-width="1.5"></path><path d="M705.39 223.31L705.39 223.31" stroke="#132e65" stroke-width="1.5"></path><path d="M705.39 223.31L821.88 230.63" stroke="#132e65" stroke-width="1.5"></path><path d="M705.39 223.31L800.86 402.1" stroke="#132e65" stroke-width="1.5"></path><path d="M675.85 562.16L675.85 562.16" stroke="#132e65" stroke-width="1.5"></path><path d="M675.85 562.16L672.39 712.03" stroke="#132e65" stroke-width="1.5"></path><path d="M675.85 562.16L829.64 638.28" stroke="#132e65" stroke-width="1.5"></path><path d="M675.85 562.16L553.84 691.83" stroke="#132e65" stroke-width="1.5"></path><path d="M675.85 562.16L800.86 402.1" stroke="#132e65" stroke-width="1.5"></path><path d="M675.85 562.16L510.56 339.71" stroke="#132e65" stroke-width="1.5"></path><path d="M672.39 712.03L672.39 712.03" stroke="#132e65" stroke-width="1.5"></path><path d="M672.39 712.03L829.64 638.28" stroke="#132e65" stroke-width="1.5"></path><path d="M672.39 712.03L370.24 646.53" stroke="#132e65" stroke-width="1.5"></path><path d="M821.88 230.63L821.88 230.63" stroke="#132e65" stroke-width="1.5"></path><path d="M821.88 230.63L948.38 211.36" stroke="#132e65" stroke-width="1.5"></path><path d="M821.88 230.63L800.86 402.1" stroke="#132e65" stroke-width="1.5"></path><path d="M821.88 230.63L938.15 372.5" stroke="#132e65" stroke-width="1.5"></path><path d="M821.88 230.63L997.17 96.38" stroke="#132e65" stroke-width="1.5"></path><path d="M800.86 402.1L800.86 402.1" stroke="#132e65" stroke-width="1.5"></path><path d="M800.86 402.1L938.15 372.5" stroke="#132e65" stroke-width="1.5"></path><path d="M800.86 402.1L964 493.55" stroke="#132e65" stroke-width="1.5"></path><path d="M829.64 638.28L829.64 638.28" stroke="#132e65" stroke-width="1.5"></path><path d="M829.64 638.28L981.02 656.24" stroke="#132e65" stroke-width="1.5"></path><path d="M829.64 638.28L964 493.55" stroke="#132e65" stroke-width="1.5"></path><path d="M997.17 96.38L997.17 96.38" stroke="#132e65" stroke-width="1.5"></path><path d="M997.17 96.38L948.38 211.36" stroke="#132e65" stroke-width="1.5"></path><path d="M997.17 96.38L1129.53 57.99" stroke="#132e65" stroke-width="1.5"></path><path d="M948.38 211.36L948.38 211.36" stroke="#132e65" stroke-width="1.5"></path><path d="M948.38 211.36L938.15 372.5" stroke="#132e65" stroke-width="1.5"></path><path d="M948.38 211.36L1116.21 188.32" stroke="#132e65" stroke-width="1.5"></path><path d="M938.15 372.5L938.15 372.5" stroke="#132e65" stroke-width="1.5"></path><path d="M938.15 372.5L964 493.55" stroke="#132e65" stroke-width="1.5"></path><path d="M938.15 372.5L1115.71 395.21" stroke="#132e65" stroke-width="1.5"></path><path d="M964 493.55L964 493.55" stroke="#132e65" stroke-width="1.5"></path><path d="M964 493.55L1115.66 540.26" stroke="#132e65" stroke-width="1.5"></path><path d="M981.02 656.24L981.02 656.24" stroke="#132e65" stroke-width="1.5"></path><path d="M981.02 656.24L1100.34 655.97" stroke="#132e65" stroke-width="1.5"></path><path d="M1134.22 -54.5L1134.22 -54.5" stroke="#132e65" stroke-width="1.5"></path><path d="M1134.22 -54.5L1129.53 57.99" stroke="#132e65" stroke-width="1.5"></path><path d="M1134.22 -54.5L997.17 96.38" stroke="#132e65" stroke-width="1.5"></path><path d="M1129.53 57.99L1129.53 57.99" stroke="#132e65" stroke-width="1.5"></path><path d="M1129.53 57.99L1116.21 188.32" stroke="#132e65" stroke-width="1.5"></path><path d="M1116.21 188.32L1116.21 188.32" stroke="#132e65" stroke-width="1.5"></path><path d="M1116.21 188.32L1261.25 220.15" stroke="#132e65" stroke-width="1.5"></path><path d="M1116.21 188.32L997.17 96.38" stroke="#132e65" stroke-width="1.5"></path><path d="M1116.21 188.32L1115.71 395.21" stroke="#132e65" stroke-width="1.5"></path><path d="M1116.21 188.32L1310.28 73.53" stroke="#132e65" stroke-width="1.5"></path><path d="M1115.71 395.21L1115.71 395.21" stroke="#132e65" stroke-width="1.5"></path><path d="M1115.71 395.21L1115.66 540.26" stroke="#132e65" stroke-width="1.5"></path><path d="M1115.71 395.21L1263.99 381.09" stroke="#132e65" stroke-width="1.5"></path><path d="M1115.71 395.21L964 493.55" stroke="#132e65" stroke-width="1.5"></path><path d="M1115.66 540.26L1115.66 540.26" stroke="#132e65" stroke-width="1.5"></path><path d="M1115.66 540.26L1100.34 655.97" stroke="#132e65" stroke-width="1.5"></path><path d="M1100.34 655.97L1100.34 655.97" stroke="#132e65" stroke-width="1.5"></path><path d="M1100.34 655.97L1302.27 712.29" stroke="#132e65" stroke-width="1.5"></path><path d="M1310.28 73.53L1310.28 73.53" stroke="#132e65" stroke-width="1.5"></path><path d="M1310.28 73.53L1445.02 81.36" stroke="#132e65" stroke-width="1.5"></path><path d="M1310.28 73.53L1261.25 220.15" stroke="#132e65" stroke-width="1.5"></path><path d="M1310.28 73.53L1400.29 -62.58" stroke="#132e65" stroke-width="1.5"></path><path d="M1310.28 73.53L1129.53 57.99" stroke="#132e65" stroke-width="1.5"></path><path d="M1310.28 73.53L1134.22 -54.5" stroke="#132e65" stroke-width="1.5"></path><path d="M1261.25 220.15L1261.25 220.15" stroke="#132e65" stroke-width="1.5"></path><path d="M1261.25 220.15L1263.99 381.09" stroke="#132e65" stroke-width="1.5"></path><path d="M1261.25 220.15L1129.53 57.99" stroke="#132e65" stroke-width="1.5"></path><path d="M1261.25 220.15L1115.71 395.21" stroke="#132e65" stroke-width="1.5"></path><path d="M1263.99 381.09L1263.99 381.09" stroke="#132e65" stroke-width="1.5"></path><path d="M1263.99 381.09L1401.49 406.37" stroke="#132e65" stroke-width="1.5"></path><path d="M1263.99 381.09L1308.28 537.59" stroke="#132e65" stroke-width="1.5"></path><path d="M1263.99 381.09L1115.66 540.26" stroke="#132e65" stroke-width="1.5"></path><path d="M1263.99 381.09L1409.25 559.95" stroke="#132e65" stroke-width="1.5"></path><path d="M1308.28 537.59L1308.28 537.59" stroke="#132e65" stroke-width="1.5"></path><path d="M1308.28 537.59L1409.25 559.95" stroke="#132e65" stroke-width="1.5"></path><path d="M1308.28 537.59L1401.49 406.37" stroke="#132e65" stroke-width="1.5"></path><path d="M1302.27 712.29L1302.27 712.29" stroke="#132e65" stroke-width="1.5"></path><path d="M1302.27 712.29L1412.63 665.68" stroke="#132e65" stroke-width="1.5"></path><path d="M1302.27 712.29L1308.28 537.59" stroke="#132e65" stroke-width="1.5"></path><path d="M1302.27 712.29L1409.25 559.95" stroke="#132e65" stroke-width="1.5"></path><path d="M1400.29 -62.58L1400.29 -62.58" stroke="#132e65" stroke-width="1.5"></path><path d="M1400.29 -62.58L1445.02 81.36" stroke="#132e65" stroke-width="1.5"></path><path d="M1400.29 -62.58L1585.43 -68.11" stroke="#132e65" stroke-width="1.5"></path><path d="M1445.02 81.36L1445.02 81.36" stroke="#132e65" stroke-width="1.5"></path><path d="M1445.02 81.36L1585.43 -68.11" stroke="#132e65" stroke-width="1.5"></path><path d="M1401.49 406.37L1401.49 406.37" stroke="#132e65" stroke-width="1.5"></path><path d="M1401.49 406.37L1409.25 559.95" stroke="#132e65" stroke-width="1.5"></path><path d="M1409.25 559.95L1409.25 559.95" stroke="#132e65" stroke-width="1.5"></path><path d="M1409.25 559.95L1412.63 665.68" stroke="#132e65" stroke-width="1.5"></path><path d="M1409.25 559.95L1564.9 653.41" stroke="#132e65" stroke-width="1.5"></path><path d="M1412.63 665.68L1412.63 665.68" stroke="#132e65" stroke-width="1.5"></path><path d="M1412.63 665.68L1564.9 653.41" stroke="#132e65" stroke-width="1.5"></path><path d="M1412.63 665.68L1308.28 537.59" stroke="#132e65" stroke-width="1.5"></path><path d="M1412.63 665.68L1593.15 519.66" stroke="#132e65" stroke-width="1.5"></path><path d="M1585.43 -68.11L1585.43 -68.11" stroke="#132e65" stroke-width="1.5"></path><path d="M1577.4 383.14L1577.4 383.14" stroke="#132e65" stroke-width="1.5"></path><path d="M1577.4 383.14L1593.15 519.66" stroke="#132e65" stroke-width="1.5"></path><path d="M1577.4 383.14L1401.49 406.37" stroke="#132e65" stroke-width="1.5"></path><path d="M1577.4 383.14L1409.25 559.95" stroke="#132e65" stroke-width="1.5"></path><path d="M1577.4 383.14L1564.9 653.41" stroke="#132e65" stroke-width="1.5"></path><path d="M1593.15 519.66L1593.15 519.66" stroke="#132e65" stroke-width="1.5"></path><path d="M1593.15 519.66L1564.9 653.41" stroke="#132e65" stroke-width="1.5"></path><path d="M1593.15 519.66L1409.25 559.95" stroke="#132e65" stroke-width="1.5"></path><path d="M1593.15 519.66L1401.49 406.37" stroke="#132e65" stroke-width="1.5"></path><path d="M1564.9 653.41L1564.9 653.41" stroke="#132e65" stroke-width="1.5"></path><path d="M1564.9 653.41L1302.27 712.29" stroke="#132e65" stroke-width="1.5"></path><circle r="5" cx="-71.89" cy="394.2" fill="#132e65"></circle><circle r="5" cx="-65.84" cy="494.64" fill="#132e65"></circle><circle r="5" cx="-80.22" cy="692.84" fill="#132e65"></circle><circle r="5" cx="50.15" cy="403.23" fill="#132e65"></circle><circle r="5" cx="66.72" cy="530.46" fill="#132e65"></circle><circle r="5" cx="251.84" cy="361.74" fill="#132e65"></circle><circle r="5" cx="211.22" cy="548.88" fill="#132e65"></circle><circle r="5" cx="188.21" cy="649.26" fill="#132e65"></circle><circle r="5" cx="359.96" cy="410.3" fill="#132e65"></circle><circle r="5" cx="353.59" cy="542.12" fill="#132e65"></circle><circle r="5" cx="370.24" cy="646.53" fill="#132e65"></circle><circle r="5" cx="510.56" cy="339.71" fill="#132e65"></circle><circle r="5" cx="553.84" cy="691.83" fill="#132e65"></circle><circle r="5" cx="705.39" cy="223.31" fill="#132e65"></circle><circle r="5" cx="675.85" cy="562.16" fill="#132e65"></circle><circle r="5" cx="672.39" cy="712.03" fill="#132e65"></circle><circle r="5" cx="821.88" cy="230.63" fill="#132e65"></circle><circle r="5" cx="800.86" cy="402.1" fill="#132e65"></circle><circle r="5" cx="829.64" cy="638.28" fill="#132e65"></circle><circle r="5" cx="997.17" cy="96.38" fill="#132e65"></circle><circle r="5" cx="948.38" cy="211.36" fill="#132e65"></circle><circle r="5" cx="938.15" cy="372.5" fill="#132e65"></circle><circle r="5" cx="964" cy="493.55" fill="#132e65"></circle><circle r="5" cx="981.02" cy="656.24" fill="#132e65"></circle><circle r="5" cx="1134.22" cy="-54.5" fill="#132e65"></circle><circle r="5" cx="1129.53" cy="57.99" fill="#132e65"></circle><circle r="5" cx="1116.21" cy="188.32" fill="#132e65"></circle><circle r="5" cx="1115.71" cy="395.21" fill="#132e65"></circle><circle r="5" cx="1115.66" cy="540.26" fill="#132e65"></circle><circle r="5" cx="1100.34" cy="655.97" fill="#132e65"></circle><circle r="5" cx="1310.28" cy="73.53" fill="#132e65"></circle><circle r="5" cx="1261.25" cy="220.15" fill="#132e65"></circle><circle r="5" cx="1263.99" cy="381.09" fill="#132e65"></circle><circle r="5" cx="1308.28" cy="537.59" fill="#132e65"></circle><circle r="5" cx="1302.27" cy="712.29" fill="#132e65"></circle><circle r="5" cx="1400.29" cy="-62.58" fill="#132e65"></circle><circle r="5" cx="1445.02" cy="81.36" fill="#132e65"></circle><circle r="5" cx="1401.49" cy="406.37" fill="#132e65"></circle><circle r="5" cx="1409.25" cy="559.95" fill="#132e65"></circle><circle r="5" cx="1412.63" cy="665.68" fill="#132e65"></circle><circle r="5" cx="1585.43" cy="-68.11" fill="#132e65"></circle><circle r="5" cx="1577.4" cy="383.14" fill="#132e65"></circle><circle r="5" cx="1593.15" cy="519.66" fill="#132e65"></circle><circle r="5" cx="1564.9" cy="653.41" fill="#132e65"></circle><path d="M92.91 517.89L92.91 517.89" stroke="hsl(228.5, 77.2%, 51.5%)" stroke-width="1.5"></path><path d="M92.91 517.89L58.21 653.9" stroke="hsl(228.5, 77.2%, 51.5%)" stroke-width="1.5"></path><path d="M92.91 517.89L233.92 538.38" stroke="hsl(228.5, 77.2%, 51.5%)" stroke-width="1.5"></path><path d="M92.91 517.89L-66.71 497.76" stroke="hsl(228.5, 77.2%, 51.5%)" stroke-width="1.5"></path><path d="M1092.33 261.5L1092.33 261.5" stroke="hsl(228.5, 77.2%, 51.5%)" stroke-width="1.5"></path><path d="M1092.33 261.5L1132.08 350.98" stroke="hsl(228.5, 77.2%, 51.5%)" stroke-width="1.5"></path><path d="M1092.33 261.5L985.16 347.43" stroke="hsl(228.5, 77.2%, 51.5%)" stroke-width="1.5"></path><path d="M1092.33 261.5L1295.52 241.51" stroke="hsl(228.5, 77.2%, 51.5%)" stroke-width="1.5"></path><path d="M1135.45 664.41L1135.45 664.41" stroke="hsl(228.5, 77.2%, 51.5%)" stroke-width="1.5"></path><path d="M1135.45 664.41L1259.6 661.45" stroke="hsl(228.5, 77.2%, 51.5%)" stroke-width="1.5"></path><path d="M1135.45 664.41L1124.36 504.45" stroke="hsl(228.5, 77.2%, 51.5%)" stroke-width="1.5"></path><path d="M1299.51 108.82L1299.51 108.82" stroke="hsl(228.5, 77.2%, 51.5%)" stroke-width="1.5"></path><path d="M1299.51 108.82L1295.52 241.51" stroke="hsl(228.5, 77.2%, 51.5%)" stroke-width="1.5"></path><path d="M1299.51 108.82L1437.13 40.16" stroke="hsl(228.5, 77.2%, 51.5%)" stroke-width="1.5"></path><path d="M1299.51 108.82L1388.28 -70.12" stroke="hsl(228.5, 77.2%, 51.5%)" stroke-width="1.5"></path><path d="M1299.51 108.82L1457.19 233.85" stroke="hsl(228.5, 77.2%, 51.5%)" stroke-width="1.5"></path><path d="M1299.51 108.82L1306.32 -107.56" stroke="hsl(228.5, 77.2%, 51.5%)" stroke-width="1.5"></path><path d="M1288.25 516.71L1288.25 516.71" stroke="hsl(228.5, 77.2%, 51.5%)" stroke-width="1.5"></path><path d="M1288.25 516.71L1430.16 501.24" stroke="hsl(228.5, 77.2%, 51.5%)" stroke-width="1.5"></path><path d="M1288.25 516.71L1259.6 661.45" stroke="hsl(228.5, 77.2%, 51.5%)" stroke-width="1.5"></path><path d="M1430.16 501.24L1430.16 501.24" stroke="hsl(228.5, 77.2%, 51.5%)" stroke-width="1.5"></path><path d="M1430.16 501.24L1569.52 512.36" stroke="hsl(228.5, 77.2%, 51.5%)" stroke-width="1.5"></path><path d="M1430.16 501.24L1412.16 337.56" stroke="hsl(228.5, 77.2%, 51.5%)" stroke-width="1.5"></path><path d="M1430.16 501.24L1459.96 667.3" stroke="hsl(228.5, 77.2%, 51.5%)" stroke-width="1.5"></path><path d="M1430.16 501.24L1550.94 350.88" stroke="hsl(228.5, 77.2%, 51.5%)" stroke-width="1.5"></path><path d="M1430.16 501.24L1293.72 354.34" stroke="hsl(228.5, 77.2%, 51.5%)" stroke-width="1.5"></path><path d="M1569.52 512.36L1569.52 512.36" stroke="hsl(228.5, 77.2%, 51.5%)" stroke-width="1.5"></path><path d="M1569.52 512.36L1591.07 649.27" stroke="hsl(228.5, 77.2%, 51.5%)" stroke-width="1.5"></path><path d="M1569.52 512.36L1550.94 350.88" stroke="hsl(228.5, 77.2%, 51.5%)" stroke-width="1.5"></path><path d="M1569.52 512.36L1459.96 667.3" stroke="hsl(228.5, 77.2%, 51.5%)" stroke-width="1.5"></path><path d="M-66.71 497.76L-66.71 497.76" stroke="hsl(228.5, 77.2%, 51.5%)" stroke-width="1.5"></path><path d="M-66.71 497.76L-68.01 650.4" stroke="hsl(228.5, 77.2%, 51.5%)" stroke-width="1.5"></path><path d="M-68.01 650.4L-68.01 650.4" stroke="hsl(228.5, 77.2%, 51.5%)" stroke-width="1.5"></path><path d="M-68.01 650.4L58.21 653.9" stroke="hsl(228.5, 77.2%, 51.5%)" stroke-width="1.5"></path><path d="M58.21 653.9L58.21 653.9" stroke="hsl(228.5, 77.2%, 51.5%)" stroke-width="1.5"></path><path d="M58.21 653.9L-66.71 497.76" stroke="hsl(228.5, 77.2%, 51.5%)" stroke-width="1.5"></path><path d="M58.21 653.9L233.92 538.38" stroke="hsl(228.5, 77.2%, 51.5%)" stroke-width="1.5"></path><path d="M233.92 538.38L233.92 538.38" stroke="hsl(228.5, 77.2%, 51.5%)" stroke-width="1.5"></path><path d="M233.92 538.38L409.21 501.5" stroke="hsl(228.5, 77.2%, 51.5%)" stroke-width="1.5"></path><path d="M409.21 501.5L409.21 501.5" stroke="hsl(228.5, 77.2%, 51.5%)" stroke-width="1.5"></path><path d="M409.21 501.5L556.09 540.68" stroke="hsl(228.5, 77.2%, 51.5%)" stroke-width="1.5"></path><path d="M370.67 701.76L370.67 701.76" stroke="hsl(228.5, 77.2%, 51.5%)" stroke-width="1.5"></path><path d="M370.67 701.76L546.83 683.34" stroke="hsl(228.5, 77.2%, 51.5%)" stroke-width="1.5"></path><path d="M370.67 701.76L409.21 501.5" stroke="hsl(228.5, 77.2%, 51.5%)" stroke-width="1.5"></path><path d="M370.67 701.76L233.92 538.38" stroke="hsl(228.5, 77.2%, 51.5%)" stroke-width="1.5"></path><path d="M370.67 701.76L556.09 540.68" stroke="hsl(228.5, 77.2%, 51.5%)" stroke-width="1.5"></path><path d="M556.09 540.68L556.09 540.68" stroke="hsl(228.5, 77.2%, 51.5%)" stroke-width="1.5"></path><path d="M556.09 540.68L676.48 524.29" stroke="hsl(228.5, 77.2%, 51.5%)" stroke-width="1.5"></path><path d="M556.09 540.68L546.83 683.34" stroke="hsl(228.5, 77.2%, 51.5%)" stroke-width="1.5"></path><path d="M546.83 683.34L546.83 683.34" stroke="hsl(228.5, 77.2%, 51.5%)" stroke-width="1.5"></path><path d="M546.83 683.34L702.74 699.34" stroke="hsl(228.5, 77.2%, 51.5%)" stroke-width="1.5"></path><path d="M546.83 683.34L676.48 524.29" stroke="hsl(228.5, 77.2%, 51.5%)" stroke-width="1.5"></path><path d="M676.41 402.54L676.41 402.54" stroke="hsl(228.5, 77.2%, 51.5%)" stroke-width="1.5"></path><path d="M676.41 402.54L676.48 524.29" stroke="hsl(228.5, 77.2%, 51.5%)" stroke-width="1.5"></path><path d="M676.41 402.54L800.62 493.13" stroke="hsl(228.5, 77.2%, 51.5%)" stroke-width="1.5"></path><path d="M676.48 524.29L676.48 524.29" stroke="hsl(228.5, 77.2%, 51.5%)" stroke-width="1.5"></path><path d="M702.74 699.34L702.74 699.34" stroke="hsl(228.5, 77.2%, 51.5%)" stroke-width="1.5"></path><path d="M702.74 699.34L814.15 651.38" stroke="hsl(228.5, 77.2%, 51.5%)" stroke-width="1.5"></path><path d="M702.74 699.34L676.48 524.29" stroke="hsl(228.5, 77.2%, 51.5%)" stroke-width="1.5"></path><path d="M702.74 699.34L556.09 540.68" stroke="hsl(228.5, 77.2%, 51.5%)" stroke-width="1.5"></path><path d="M702.74 699.34L800.62 493.13" stroke="hsl(228.5, 77.2%, 51.5%)" stroke-width="1.5"></path><path d="M702.74 699.34L952.46 693.84" stroke="hsl(228.5, 77.2%, 51.5%)" stroke-width="1.5"></path><path d="M835.26 409.85L835.26 409.85" stroke="hsl(228.5, 77.2%, 51.5%)" stroke-width="1.5"></path><path d="M835.26 409.85L800.62 493.13" stroke="hsl(228.5, 77.2%, 51.5%)" stroke-width="1.5"></path><path d="M835.26 409.85L676.41 402.54" stroke="hsl(228.5, 77.2%, 51.5%)" stroke-width="1.5"></path><path d="M835.26 409.85L973.65 488.28" stroke="hsl(228.5, 77.2%, 51.5%)" stroke-width="1.5"></path><path d="M800.62 493.13L800.62 493.13" stroke="hsl(228.5, 77.2%, 51.5%)" stroke-width="1.5"></path><path d="M800.62 493.13L676.48 524.29" stroke="hsl(228.5, 77.2%, 51.5%)" stroke-width="1.5"></path><path d="M814.15 651.38L814.15 651.38" stroke="hsl(228.5, 77.2%, 51.5%)" stroke-width="1.5"></path><path d="M814.15 651.38L952.46 693.84" stroke="hsl(228.5, 77.2%, 51.5%)" stroke-width="1.5"></path><path d="M814.15 651.38L800.62 493.13" stroke="hsl(228.5, 77.2%, 51.5%)" stroke-width="1.5"></path><path d="M814.15 651.38L676.48 524.29" stroke="hsl(228.5, 77.2%, 51.5%)" stroke-width="1.5"></path><path d="M985.16 347.43L985.16 347.43" stroke="hsl(228.5, 77.2%, 51.5%)" stroke-width="1.5"></path><path d="M985.16 347.43L973.65 488.28" stroke="hsl(228.5, 77.2%, 51.5%)" stroke-width="1.5"></path><path d="M985.16 347.43L1132.08 350.98" stroke="hsl(228.5, 77.2%, 51.5%)" stroke-width="1.5"></path><path d="M985.16 347.43L835.26 409.85" stroke="hsl(228.5, 77.2%, 51.5%)" stroke-width="1.5"></path><path d="M985.16 347.43L1124.36 504.45" stroke="hsl(228.5, 77.2%, 51.5%)" stroke-width="1.5"></path><path d="M973.65 488.28L973.65 488.28" stroke="hsl(228.5, 77.2%, 51.5%)" stroke-width="1.5"></path><path d="M952.46 693.84L952.46 693.84" stroke="hsl(228.5, 77.2%, 51.5%)" stroke-width="1.5"></path><path d="M952.46 693.84L1135.45 664.41" stroke="hsl(228.5, 77.2%, 51.5%)" stroke-width="1.5"></path><path d="M952.46 693.84L973.65 488.28" stroke="hsl(228.5, 77.2%, 51.5%)" stroke-width="1.5"></path><path d="M952.46 693.84L800.62 493.13" stroke="hsl(228.5, 77.2%, 51.5%)" stroke-width="1.5"></path><path d="M952.46 693.84L1124.36 504.45" stroke="hsl(228.5, 77.2%, 51.5%)" stroke-width="1.5"></path><path d="M1132.08 350.98L1132.08 350.98" stroke="hsl(228.5, 77.2%, 51.5%)" stroke-width="1.5"></path><path d="M1132.08 350.98L1124.36 504.45" stroke="hsl(228.5, 77.2%, 51.5%)" stroke-width="1.5"></path><path d="M1124.36 504.45L1124.36 504.45" stroke="hsl(228.5, 77.2%, 51.5%)" stroke-width="1.5"></path><path d="M1124.36 504.45L973.65 488.28" stroke="hsl(228.5, 77.2%, 51.5%)" stroke-width="1.5"></path><path d="M1124.36 504.45L1288.25 516.71" stroke="hsl(228.5, 77.2%, 51.5%)" stroke-width="1.5"></path><path d="M1306.32 -107.56L1306.32 -107.56" stroke="hsl(228.5, 77.2%, 51.5%)" stroke-width="1.5"></path><path d="M1306.32 -107.56L1388.28 -70.12" stroke="hsl(228.5, 77.2%, 51.5%)" stroke-width="1.5"></path><path d="M1306.32 -107.56L1437.13 40.16" stroke="hsl(228.5, 77.2%, 51.5%)" stroke-width="1.5"></path><path d="M1306.32 -107.56L1591.15 -64.97" stroke="hsl(228.5, 77.2%, 51.5%)" stroke-width="1.5"></path><path d="M1306.32 -107.56L1295.52 241.51" stroke="hsl(228.5, 77.2%, 51.5%)" stroke-width="1.5"></path><path d="M1295.52 241.51L1295.52 241.51" stroke="hsl(228.5, 77.2%, 51.5%)" stroke-width="1.5"></path><path d="M1295.52 241.51L1293.72 354.34" stroke="hsl(228.5, 77.2%, 51.5%)" stroke-width="1.5"></path><path d="M1293.72 354.34L1293.72 354.34" stroke="hsl(228.5, 77.2%, 51.5%)" stroke-width="1.5"></path><path d="M1293.72 354.34L1412.16 337.56" stroke="hsl(228.5, 77.2%, 51.5%)" stroke-width="1.5"></path><path d="M1293.72 354.34L1132.08 350.98" stroke="hsl(228.5, 77.2%, 51.5%)" stroke-width="1.5"></path><path d="M1259.6 661.45L1259.6 661.45" stroke="hsl(228.5, 77.2%, 51.5%)" stroke-width="1.5"></path><path d="M1259.6 661.45L1459.96 667.3" stroke="hsl(228.5, 77.2%, 51.5%)" stroke-width="1.5"></path><path d="M1259.6 661.45L1124.36 504.45" stroke="hsl(228.5, 77.2%, 51.5%)" stroke-width="1.5"></path><path d="M1259.6 661.45L1430.16 501.24" stroke="hsl(228.5, 77.2%, 51.5%)" stroke-width="1.5"></path><path d="M1259.6 661.45L952.46 693.84" stroke="hsl(228.5, 77.2%, 51.5%)" stroke-width="1.5"></path><path d="M1388.28 -70.12L1388.28 -70.12" stroke="hsl(228.5, 77.2%, 51.5%)" stroke-width="1.5"></path><path d="M1388.28 -70.12L1437.13 40.16" stroke="hsl(228.5, 77.2%, 51.5%)" stroke-width="1.5"></path><path d="M1437.13 40.16L1437.13 40.16" stroke="hsl(228.5, 77.2%, 51.5%)" stroke-width="1.5"></path><path d="M1457.19 233.85L1457.19 233.85" stroke="hsl(228.5, 77.2%, 51.5%)" stroke-width="1.5"></path><path d="M1457.19 233.85L1412.16 337.56" stroke="hsl(228.5, 77.2%, 51.5%)" stroke-width="1.5"></path><path d="M1457.19 233.85L1598.9 256.84" stroke="hsl(228.5, 77.2%, 51.5%)" stroke-width="1.5"></path><path d="M1457.19 233.85L1550.94 350.88" stroke="hsl(228.5, 77.2%, 51.5%)" stroke-width="1.5"></path><path d="M1457.19 233.85L1295.52 241.51" stroke="hsl(228.5, 77.2%, 51.5%)" stroke-width="1.5"></path><path d="M1457.19 233.85L1597.14 111.96" stroke="hsl(228.5, 77.2%, 51.5%)" stroke-width="1.5"></path><path d="M1457.19 233.85L1437.13 40.16" stroke="hsl(228.5, 77.2%, 51.5%)" stroke-width="1.5"></path><path d="M1412.16 337.56L1412.16 337.56" stroke="hsl(228.5, 77.2%, 51.5%)" stroke-width="1.5"></path><path d="M1412.16 337.56L1550.94 350.88" stroke="hsl(228.5, 77.2%, 51.5%)" stroke-width="1.5"></path><path d="M1412.16 337.56L1295.52 241.51" stroke="hsl(228.5, 77.2%, 51.5%)" stroke-width="1.5"></path><path d="M1459.96 667.3L1459.96 667.3" stroke="hsl(228.5, 77.2%, 51.5%)" stroke-width="1.5"></path><path d="M1459.96 667.3L1591.07 649.27" stroke="hsl(228.5, 77.2%, 51.5%)" stroke-width="1.5"></path><path d="M1591.15 -64.97L1591.15 -64.97" stroke="hsl(228.5, 77.2%, 51.5%)" stroke-width="1.5"></path><path d="M1591.15 -64.97L1597.14 111.96" stroke="hsl(228.5, 77.2%, 51.5%)" stroke-width="1.5"></path><path d="M1591.15 -64.97L1437.13 40.16" stroke="hsl(228.5, 77.2%, 51.5%)" stroke-width="1.5"></path><path d="M1591.15 -64.97L1388.28 -70.12" stroke="hsl(228.5, 77.2%, 51.5%)" stroke-width="1.5"></path><path d="M1591.15 -64.97L1598.9 256.84" stroke="hsl(228.5, 77.2%, 51.5%)" stroke-width="1.5"></path><path d="M1597.14 111.96L1597.14 111.96" stroke="hsl(228.5, 77.2%, 51.5%)" stroke-width="1.5"></path><path d="M1597.14 111.96L1598.9 256.84" stroke="hsl(228.5, 77.2%, 51.5%)" stroke-width="1.5"></path><path d="M1597.14 111.96L1437.13 40.16" stroke="hsl(228.5, 77.2%, 51.5%)" stroke-width="1.5"></path><path d="M1598.9 256.84L1598.9 256.84" stroke="hsl(228.5, 77.2%, 51.5%)" stroke-width="1.5"></path><path d="M1598.9 256.84L1550.94 350.88" stroke="hsl(228.5, 77.2%, 51.5%)" stroke-width="1.5"></path><path d="M1598.9 256.84L1412.16 337.56" stroke="hsl(228.5, 77.2%, 51.5%)" stroke-width="1.5"></path><path d="M1598.9 256.84L1569.52 512.36" stroke="hsl(228.5, 77.2%, 51.5%)" stroke-width="1.5"></path><path d="M1550.94 350.88L1550.94 350.88" stroke="hsl(228.5, 77.2%, 51.5%)" stroke-width="1.5"></path><path d="M1591.07 649.27L1591.07 649.27" stroke="hsl(228.5, 77.2%, 51.5%)" stroke-width="1.5"></path><path d="M1591.07 649.27L1430.16 501.24" stroke="hsl(228.5, 77.2%, 51.5%)" stroke-width="1.5"></path><path d="M1591.07 649.27L1550.94 350.88" stroke="hsl(228.5, 77.2%, 51.5%)" stroke-width="1.5"></path><circle r="25" cx="92.91" cy="517.89" fill="url(&quot;#SvgjsRadialGradient1015&quot;)"></circle><circle r="25" cx="1092.33" cy="261.5" fill="url(&quot;#SvgjsRadialGradient1015&quot;)"></circle><circle r="25" cx="1135.45" cy="664.41" fill="url(&quot;#SvgjsRadialGradient1015&quot;)"></circle><circle r="25" cx="1299.51" cy="108.82" fill="url(&quot;#SvgjsRadialGradient1015&quot;)"></circle><circle r="25" cx="1288.25" cy="516.71" fill="url(&quot;#SvgjsRadialGradient1015&quot;)"></circle><circle r="25" cx="1430.16" cy="501.24" fill="url(&quot;#SvgjsRadialGradient1015&quot;)"></circle><circle r="25" cx="1569.52" cy="512.36" fill="url(&quot;#SvgjsRadialGradient1015&quot;)"></circle><circle r="5" cx="-66.71" cy="497.76" fill="#8b9ad9"></circle><circle r="5" cx="-68.01" cy="650.4" fill="#8b9ad9"></circle><circle r="5" cx="58.21" cy="653.9" fill="#8b9ad9"></circle><circle r="5" cx="233.92" cy="538.38" fill="#8b9ad9"></circle><circle r="5" cx="409.21" cy="501.5" fill="#8b9ad9"></circle><circle r="5" cx="370.67" cy="701.76" fill="#8b9ad9"></circle><circle r="5" cx="556.09" cy="540.68" fill="#8b9ad9"></circle><circle r="5" cx="546.83" cy="683.34" fill="#8b9ad9"></circle><circle r="5" cx="676.41" cy="402.54" fill="#8b9ad9"></circle><circle r="5" cx="676.48" cy="524.29" fill="#8b9ad9"></circle><circle r="5" cx="702.74" cy="699.34" fill="#8b9ad9"></circle><circle r="5" cx="835.26" cy="409.85" fill="#8b9ad9"></circle><circle r="5" cx="800.62" cy="493.13" fill="#8b9ad9"></circle><circle r="5" cx="814.15" cy="651.38" fill="#8b9ad9"></circle><circle r="5" cx="985.16" cy="347.43" fill="#8b9ad9"></circle><circle r="5" cx="973.65" cy="488.28" fill="#8b9ad9"></circle><circle r="5" cx="952.46" cy="693.84" fill="#8b9ad9"></circle><circle r="5" cx="1132.08" cy="350.98" fill="#8b9ad9"></circle><circle r="5" cx="1124.36" cy="504.45" fill="#8b9ad9"></circle><circle r="5" cx="1306.32" cy="-107.56" fill="#8b9ad9"></circle><circle r="5" cx="1295.52" cy="241.51" fill="#8b9ad9"></circle><circle r="5" cx="1293.72" cy="354.34" fill="#8b9ad9"></circle><circle r="5" cx="1259.6" cy="661.45" fill="#8b9ad9"></circle><circle r="5" cx="1388.28" cy="-70.12" fill="#8b9ad9"></circle><circle r="5" cx="1437.13" cy="40.16" fill="#8b9ad9"></circle><circle r="5" cx="1457.19" cy="233.85" fill="#8b9ad9"></circle><circle r="5" cx="1412.16" cy="337.56" fill="#8b9ad9"></circle><circle r="5" cx="1459.96" cy="667.3" fill="#8b9ad9"></circle><circle r="5" cx="1591.15" cy="-64.97" fill="#8b9ad9"></circle><circle r="5" cx="1597.14" cy="111.96" fill="#8b9ad9"></circle><circle r="5" cx="1598.9" cy="256.84" fill="#8b9ad9"></circle><circle r="5" cx="1550.94" cy="350.88" fill="#8b9ad9"></circle><circle r="5" cx="1591.07" cy="649.27" fill="#8b9ad9"></circle></g><defs><mask id="SvgjsMask1014"><rect width="1440" height="560" fill="#ffffff"></rect></mask><radialGradient id="SvgjsRadialGradient1015"><stop stop-color="#ffffff" offset="0.1"></stop><stop stop-color="#1735b3" offset="0.2"></stop><stop stop-color="rgba(23, 53, 179, 0)" offset="1"></stop></radialGradient></defs></svg>